<?xml version="1.0" encoding="UTF-8"?>
<!DOCTYPE svg PUBLIC "-//W3C//DTD SVG 1.1//EN" "http://www.w3.org/Graphics/SVG/1.1/DTD/svg11.dtd">
<svg xmlns="http://www.w3.org/2000/svg" version="1.1" width="38px" height="38px" style="shape-rendering:geometricPrecision; text-rendering:geometricPrecision; image-rendering:optimizeQuality; fill-rule:evenodd; clip-rule:evenodd" xmlns:xlink="http://www.w3.org/1999/xlink">
<g><path style="opacity:0.792" fill="#fe6600" d="M 3.5,-0.5 C 9.83333,-0.5 16.1667,-0.5 22.5,-0.5C 32.4165,4.3011 35.2498,11.9678 31,22.5C 28.2967,25.9339 24.7967,27.9339 20.5,28.5C 19.2438,28.5386 18.2438,28.0386 17.5,27C 24.2215,26.4373 28.2215,22.9373 29.5,16.5C 30.8333,15.5 30.8333,14.5 29.5,13.5C 28.7724,6.93755 25.1058,3.10421 18.5,2C 14.1794,1.50098 9.84611,1.33432 5.5,1.5C 5.5,13.5 5.5,25.5 5.5,37.5C 4.83333,37.5 4.16667,37.5 3.5,37.5C 3.5,24.8333 3.5,12.1667 3.5,-0.5 Z M 8.5,4.5 C 13.742,4.02272 18.742,4.85605 23.5,7C 27.051,11.4152 27.3843,16.0819 24.5,21C 19.4053,23.1771 14.072,24.0104 8.5,23.5C 8.5,17.1667 8.5,10.8333 8.5,4.5 Z"/></g>
<g><path style="opacity:0.658" fill="#8dc53e" d="M 29.5,13.5 C 29.5,14.5 29.5,15.5 29.5,16.5C 28.2215,22.9373 24.2215,26.4373 17.5,27C 18.2438,28.0386 19.2438,28.5386 20.5,28.5C 23.9829,31.7392 27.6496,34.7392 31.5,37.5C 29.5,37.5 27.5,37.5 25.5,37.5C 20.1559,33.399 14.6559,29.399 9,25.5C 8.50115,29.4862 8.33449,33.4862 8.5,37.5C 7.5,37.5 6.5,37.5 5.5,37.5C 5.5,25.5 5.5,13.5 5.5,1.5C 9.84611,1.33432 14.1794,1.50098 18.5,2C 25.1058,3.10421 28.7724,6.93755 29.5,13.5 Z M 8.5,4.5 C 8.5,10.8333 8.5,17.1667 8.5,23.5C 14.072,24.0104 19.4053,23.1771 24.5,21C 27.3843,16.0819 27.051,11.4152 23.5,7C 18.742,4.85605 13.742,4.02272 8.5,4.5 Z"/></g>
</svg>
